<svg width="139" height="68" viewBox="0 0 139 68" fill="none" xmlns="http://www.w3.org/2000/svg">
<g clip-path="url(#clip0_184_1668)">
<path d="M110.132 44.0976C109.56 45.2503 108.518 46.8806 107.569 47.8391H31.4763C30.9047 47.0717 29.5762 45.3458 29.0076 44.0976H110.132ZM104.444 51.7809H34.6016C35.7386 53.1278 36.9699 54.3698 38.2012 55.2358H100.565C102.072 54.3698 103.501 53.1247 104.447 51.7809H104.444ZM95.8218 58.888H76.6747C76.1093 61.9668 76.1093 64.8454 76.1093 66.9565C81.6971 66.5713 89.0909 63.9794 95.8218 58.888ZM117.237 18.9241C108.518 19.4973 96.0073 25.4579 87.8596 35.1599C86.3425 36.8889 85.017 38.624 83.9712 40.4455H112.02C115.811 32.7621 117.799 25.1712 117.237 18.9272V18.9241ZM62.8419 66.9596C62.9331 64.8485 62.9331 61.9668 62.55 58.891H43.2205C50.0488 63.9824 57.4364 66.5744 62.8419 66.9596ZM69.5668 67.536C71.5551 65.4248 73.6437 62.5401 75.5377 58.891H63.4986C65.4899 62.5401 67.387 65.4217 69.5637 67.536H69.5668ZM55.2597 40.4455C54.2169 38.624 52.791 36.892 51.3743 35.1599C43.2236 25.4609 30.622 19.4973 21.997 18.9241C21.4285 25.1682 23.3225 32.759 27.1136 40.4424H55.2627L55.2597 40.4455ZM81.7002 40.4455C81.8917 38.2357 82.0802 36.1215 82.0802 33.6251C82.0802 20.1785 76.1123 6.24797 69.5698 0.00390625C62.9361 6.24797 57.0595 20.1815 57.0595 33.6251C57.0595 36.1215 57.0595 38.2357 57.4395 40.4455H81.7002ZM109.956 94.6357C113.935 94.6357 117.255 92.9961 117.255 88.9556C117.255 86.6534 115.644 85.1155 113.084 84.4436C110.43 83.7717 107.019 83.8673 107.019 82.1383C107.21 80.9826 108.25 80.6959 109.861 80.6959C112.33 80.6959 112.421 82.0428 112.519 82.9026H116.589C116.304 79.7375 113.744 77.5246 109.673 77.5246C105.602 77.5246 102.942 79.8361 102.942 82.8133C102.942 84.5392 103.793 86.074 105.219 86.8445C106.262 87.3253 107.679 87.7074 109.387 87.9971C111.187 88.1882 112.804 88.3762 112.896 89.6275C112.896 90.4935 112.038 91.5537 110.144 91.5537C107.396 91.5537 106.824 90.0158 106.824 88.9525H102.562C102.659 92.318 105.401 94.6326 109.953 94.6326L109.956 94.6357ZM87.665 86.0771C87.665 88.5796 89.8509 90.7863 92.4108 90.7863C94.9706 90.7863 96.9589 88.5796 96.9589 86.0771C96.9589 83.5745 94.8672 81.2723 92.4108 81.2723C89.9543 81.2723 87.665 83.4851 87.665 86.0771ZM92.2131 94.6357C87.5677 94.6357 83.6854 90.7863 83.6854 86.0771C83.6854 81.3678 87.5677 77.5277 92.2131 77.5277C94.019 77.5277 95.6273 78.0085 96.9558 78.9731V77.7219H101.03V94.2443H96.9558V93.1872C95.6273 94.0563 94.019 94.6357 92.2131 94.6357ZM68.9983 86.0771C68.9983 88.5796 71.172 90.7863 73.6406 90.7863C76.1093 90.7863 78.3803 88.5796 78.3803 86.0771C78.3803 83.5745 76.1974 81.2723 73.6406 81.2723C71.0838 81.2723 68.9983 83.4851 68.9983 86.0771ZM78.3772 72.051H82.3569V94.2443H78.3772V93.1872C77.0517 94.0563 75.3431 94.6357 73.5464 94.6357C68.8949 94.6357 65.1099 90.7863 65.1099 86.0771C65.1099 81.3678 68.8949 77.5277 73.5464 77.5277C75.3431 77.5277 76.9544 78.0085 78.3772 78.9731V72.048V72.051ZM59.4217 76.184V72.051H63.4013V76.184H59.4217ZM63.4013 94.2443H59.4217V77.7219H63.4013V94.2443ZM43.8802 86.0771C43.8802 88.5796 46.0601 90.7863 48.7172 90.7863C51.1797 90.7863 53.3626 88.5796 53.3626 86.0771C53.3626 83.5745 51.1797 81.2723 48.7172 81.2723C46.0601 81.2723 43.8802 83.4851 43.8802 86.0771ZM48.5256 94.6357C43.8802 94.6357 39.9949 90.7863 39.9949 86.0771C39.9949 81.3678 43.8802 77.5277 48.5256 77.5277C50.3254 77.5277 51.9367 78.0085 53.3595 78.9731V72.048H57.4334V94.2412H53.3595V93.1841C51.9337 94.0532 50.3254 94.6326 48.5256 94.6326V94.6357ZM25.2165 86.0771C25.2165 88.5796 27.3963 90.7863 29.8589 90.7863C32.5099 90.7863 34.6958 88.5796 34.6958 86.0771C34.6958 83.5745 32.513 81.2723 29.8589 81.2723C27.3963 81.2723 25.2165 83.4851 25.2165 86.0771ZM29.7616 94.6357C25.1162 94.6357 21.3281 90.7863 21.3281 86.0771C21.3281 81.3678 25.1162 77.5277 29.7616 77.5277C31.5614 77.5277 33.27 78.0085 34.6928 78.9731V77.7219H38.6694V94.2443H34.6928V93.1872C33.27 94.0563 31.6587 94.6357 29.7616 94.6357Z" fill="black"/>
</g>
<defs>
<clipPath id="clip0_184_1668">
<rect width="96" height="67.2" fill="white" transform="translate(21.3359)"/>
</clipPath>
</defs>
</svg>
